<svg width="23" height="26" viewBox="0 0 23 26" fill="none" xmlns="http://www.w3.org/2000/svg">
<path d="M19.9577 15.9077L22.4793 15.9077L22.4793 13.8141L15.1904 13.8141C15.0578 15.9864 13.2336 17.7102 11.0037 17.7102C8.77377 17.7102 6.94955 15.9864 6.81697 13.8141L2.88995e-06 13.8141L2.70692e-06 15.9077L2.08142 15.9077C2.19278 16.338 2.33861 16.7604 2.51361 17.1749C2.71247 17.6419 2.94846 18.088 3.22156 18.5104L1.39999 20.3128L4.26889 23.1516L6.09312 21.3465C6.5147 21.6115 6.96015 21.8424 7.42416 22.0365C7.94651 22.2543 8.48476 22.4248 9.03362 22.5429L9.03362 25.0537L13.0957 25.0537L13.0957 22.5219C13.6127 22.4038 14.1192 22.2412 14.6123 22.0365C15.1108 21.8293 15.5854 21.58 16.0335 21.2914L17.8259 23.065L20.6975 20.2236L18.8759 18.4212C19.1252 18.025 19.3399 17.6078 19.5255 17.1749C19.7005 16.7604 19.8464 16.338 19.9577 15.9077Z" fill="#FFB342"/>
<path d="M18.8742 4.70507V8.93269C18.8742 9.21959 18.6372 9.45235 18.345 9.45235H17.9702C17.678 9.45235 17.441 9.21959 17.441 8.93269V3.60621C16.3551 2.89709 15.1369 2.36661 13.8304 2.06348V9.39822C13.8304 9.68511 13.5934 9.91787 13.3013 9.91787H9.16701C8.87486 9.91787 8.63783 9.68511 8.63783 9.39822V2.06348C7.34795 2.36661 6.12972 2.90251 5.04379 3.60621V8.93269C5.04379 9.21959 4.80676 9.45235 4.51461 9.45235H4.13977C3.84762 9.45235 3.61059 9.21959 3.61059 8.93269V4.70507C1.39463 6.71874 1.33514e-05 9.59309 1.33514e-05 12.7922H22.4793C22.4848 9.59309 21.0957 6.71874 18.8742 4.70507Z" fill="#FFB342"/>
<path d="M12.7723 8.52288C12.7723 8.76481 12.595 8.96042 12.372 8.96042H10.1073C9.88998 8.96042 9.70698 8.76481 9.70698 8.52288V1.22367C9.70698 0.981739 9.88427 0.786133 10.1073 0.786133H12.372C12.5893 0.786133 12.7723 0.981739 12.7723 1.22367V8.52288Z" fill="#FFB342"/>
</svg>
